<svg width="15" height="16" viewBox="0 0 15 16" fill="none" xmlns="http://www.w3.org/2000/svg">
<g id="Group">
<path id="Vector" d="M6.30213 10.9414L3.40918 8.04774L4.37327 7.08365L6.30213 9.01183L10.1585 5.15479L11.1233 6.11956L6.30213 10.94V10.9414Z" fill="#590BD8"/>
<path id="Vector_2" fill-rule="evenodd" clip-rule="evenodd" d="M0 8C0 3.85795 3.35795 0.5 7.5 0.5C11.642 0.5 15 3.85795 15 8C15 12.142 11.642 15.5 7.5 15.5C3.35795 15.5 0 12.142 0 8ZM7.5 14.1364C6.69416 14.1364 5.89621 13.9776 5.15172 13.6693C4.40722 13.3609 3.73075 12.9089 3.16094 12.3391C2.59112 11.7692 2.13912 11.0928 1.83074 10.3483C1.52236 9.60379 1.36364 8.80584 1.36364 8C1.36364 7.19416 1.52236 6.39621 1.83074 5.65172C2.13912 4.90722 2.59112 4.23075 3.16094 3.66094C3.73075 3.09112 4.40722 2.63912 5.15172 2.33074C5.89621 2.02236 6.69416 1.86364 7.5 1.86364C9.12746 1.86364 10.6883 2.51014 11.8391 3.66094C12.9899 4.81173 13.6364 6.37254 13.6364 8C13.6364 9.62746 12.9899 11.1883 11.8391 12.3391C10.6883 13.4899 9.12746 14.1364 7.5 14.1364Z" fill="#590BD8"/>
</g>
</svg>
